<?xml version="1.0" encoding="iso-8859-1"?>
<!-- Generator: Adobe Illustrator 19.0.0, SVG Export Plug-In . SVG Version: 6.00 Build 0)  -->
<svg version="1.1" id="Layer_1" xmlns="http://www.w3.org/2000/svg" xmlns:xlink="http://www.w3.org/1999/xlink" x="0px" y="0px"
	 viewBox="0 0 512 512" style="enable-background:new 0 0 512 512;" xml:space="preserve">
<path style="fill:#DEDEE0;" d="M488.727,0H256H23.273C10.42,0,0,10.42,0,23.273v465.455C0,501.582,10.42,512,23.273,512H256h232.727
	C501.58,512,512,501.582,512,488.727V23.273C512,10.42,501.58,0,488.727,0z M277.845,277.333c-5.767,5.75-13.719,9.047-21.845,9.072
	c-0.031,0-0.061,0.005-0.093,0.005c-8.176,0-16.168-3.305-21.954-9.076c-5.772-5.787-9.092-13.777-9.092-21.938
	c0-8.176,3.322-16.167,9.092-21.954c5.786-5.772,13.777-9.092,21.954-9.092c0.033,0,0.062,0.005,0.093,0.005
	c8.127,0.025,16.078,3.337,21.845,9.087c5.772,5.787,9.076,13.777,9.076,21.954C286.922,263.556,283.617,271.548,277.845,277.333z"
	/>
<path style="fill:#C3C3C7;" d="M255.907,286.411c-8.178,0-16.168-3.305-21.954-9.076c-5.772-5.787-9.092-13.777-9.092-21.938
	c0-8.176,3.322-16.167,9.092-21.954c5.787-5.772,13.777-9.092,21.954-9.092c0.031,0,0.062,0.005,0.093,0.005V0.002H23.273
	C10.42,0.002,0,10.42,0,23.274v465.453C0,501.582,10.42,512,23.273,512H256V286.407
	C255.969,286.407,255.939,286.411,255.907,286.411z"/>
<path style="fill:#57575C;" d="M233.953,233.441c-5.772,5.787-9.092,13.777-9.092,21.954c0,8.161,3.322,16.151,9.092,21.938
	c5.787,5.772,13.777,9.076,21.954,9.076c0.031,0,0.062-0.005,0.093-0.005c8.127-0.025,16.078-3.322,21.845-9.072
	c5.772-5.787,9.076-13.777,9.076-21.938c0-8.176-3.305-16.167-9.076-21.954c-5.767-5.75-13.719-9.062-21.845-9.087
	c-0.031,0-0.061-0.005-0.093-0.005C247.73,224.351,239.74,227.669,233.953,233.441z"/>
<g>
</g>
<g>
</g>
<g>
</g>
<g>
</g>
<g>
</g>
<g>
</g>
<g>
</g>
<g>
</g>
<g>
</g>
<g>
</g>
<g>
</g>
<g>
</g>
<g>
</g>
<g>
</g>
<g>
</g>
</svg>
