<?xml version="1.0" encoding="iso-8859-1"?>
<!-- Generator: Adobe Illustrator 19.0.0, SVG Export Plug-In . SVG Version: 6.00 Build 0)  -->
<svg version="1.1" id="Layer_1" xmlns="http://www.w3.org/2000/svg" xmlns:xlink="http://www.w3.org/1999/xlink" x="0px" y="0px"
	 viewBox="0 0 512 512" style="enable-background:new 0 0 512 512;" xml:space="preserve">
<path style="fill:#DEDEE0;" d="M488.727,0H256H23.273C10.42,0,0,10.42,0,23.273v465.455C0,501.582,10.42,512,23.273,512H256h232.727
	C501.58,512,512,501.582,512,488.727V23.273C512,10.42,501.58,0,488.727,0z M169.239,385.939
	c-5.787,5.772-13.777,9.092-21.954,9.092c-8.161,0-16.167-3.32-21.938-9.092c-5.772-5.787-9.092-13.777-9.092-21.954
	c0-8.161,3.322-16.151,9.092-21.938c5.786-5.772,13.777-9.092,21.938-9.092c8.178,0,16.167,3.32,21.954,9.092
	c5.772,5.787,9.09,13.777,9.09,21.938C178.33,372.162,175.011,380.154,169.239,385.939z M277.845,277.333
	c-5.762,5.747-13.706,9.056-21.845,9.086c-0.036,0-0.073,0.005-0.109,0.005c-8.161,0-16.167-3.32-21.938-9.092
	c-5.772-5.787-9.092-13.777-9.092-21.938c0-8.176,3.322-16.182,9.092-21.954c5.77-5.772,13.777-9.092,21.938-9.092
	c0.036,0,0.073,0.005,0.109,0.005c8.139,0.029,16.083,3.34,21.845,9.086c5.772,5.772,9.076,13.777,9.076,21.954
	C286.922,263.556,283.617,271.548,277.845,277.333z M386.436,168.727c-5.773,5.772-13.762,9.092-21.924,9.092
	c-8.176,0-16.182-3.32-21.952-9.092c-5.772-5.787-9.092-13.777-9.092-21.954c0-8.161,3.322-16.167,9.092-21.938
	c5.77-5.772,13.777-9.092,21.952-9.092c8.163,0,16.151,3.32,21.924,9.092c5.786,5.772,9.09,13.777,9.09,21.938
	C395.528,154.95,392.223,162.942,386.436,168.727z"/>
<path style="fill:#C3C3C7;" d="M255.891,286.425c-8.161,0-16.167-3.32-21.938-9.092c-5.772-5.787-9.092-13.777-9.092-21.938
	c0-8.176,3.322-16.182,9.092-21.954c5.772-5.772,13.777-9.092,21.938-9.092c0.036,0,0.073,0.005,0.109,0.005V0.002H23.273
	C10.42,0.002,0,10.42,0,23.274v465.453C0,501.582,10.42,512,23.273,512H256V286.421
	C255.964,286.421,255.927,286.425,255.891,286.425z M169.239,385.941c-5.787,5.772-13.777,9.092-21.954,9.092
	c-8.161,0-16.167-3.32-21.938-9.092c-5.772-5.787-9.092-13.777-9.092-21.954c0-8.161,3.322-16.151,9.092-21.938
	c5.786-5.772,13.777-9.092,21.938-9.092c8.178,0,16.167,3.32,21.954,9.092c5.772,5.787,9.09,13.777,9.09,21.938
	C178.33,372.162,175.011,380.152,169.239,385.941z"/>
<g>
	<path style="fill:#57575C;" d="M147.285,332.957c-8.161,0-16.151,3.32-21.938,9.092c-5.772,5.787-9.092,13.777-9.092,21.938
		c0,8.176,3.322,16.167,9.092,21.954c5.772,5.772,13.777,9.092,21.938,9.092c8.178,0,16.167-3.32,21.954-9.092
		c5.772-5.787,9.09-13.777,9.09-21.954c0-8.161-3.32-16.151-9.09-21.938C163.452,336.275,155.462,332.957,147.285,332.957z"/>
	<path style="fill:#57575C;" d="M233.953,233.441c-5.772,5.772-9.092,13.777-9.092,21.954c0,8.161,3.322,16.151,9.092,21.938
		c5.772,5.772,13.777,9.092,21.938,9.092c0.036,0,0.073-0.005,0.109-0.005c8.139-0.029,16.083-3.34,21.845-9.086
		c5.772-5.787,9.076-13.777,9.076-21.938c0-8.176-3.305-16.182-9.076-21.954c-5.762-5.747-13.706-9.056-21.845-9.086
		c-0.036,0-0.073-0.005-0.109-0.005C247.73,224.351,239.725,227.669,233.953,233.441z"/>
	<path style="fill:#57575C;" d="M364.511,115.745c-8.177,0-16.182,3.32-21.954,9.092s-9.092,13.777-9.092,21.938
		c0,8.176,3.322,16.167,9.092,21.954c5.772,5.772,13.777,9.092,21.954,9.092c8.163,0,16.151-3.32,21.924-9.092
		c5.787-5.787,9.09-13.777,9.09-21.954c0-8.161-3.305-16.167-9.09-21.938C380.664,119.063,372.674,115.745,364.511,115.745z"/>
</g>
<g>
</g>
<g>
</g>
<g>
</g>
<g>
</g>
<g>
</g>
<g>
</g>
<g>
</g>
<g>
</g>
<g>
</g>
<g>
</g>
<g>
</g>
<g>
</g>
<g>
</g>
<g>
</g>
<g>
</g>
</svg>
