<?xml version="1.0" encoding="iso-8859-1"?>
<!-- Generator: Adobe Illustrator 19.0.0, SVG Export Plug-In . SVG Version: 6.00 Build 0)  -->
<svg version="1.1" id="Layer_1" xmlns="http://www.w3.org/2000/svg" xmlns:xlink="http://www.w3.org/1999/xlink" x="0px" y="0px"
	 viewBox="0 0 512 512" style="enable-background:new 0 0 512 512;" xml:space="preserve">
<path style="fill:#DEDEE0;" d="M488.727,0H256H23.273C10.42,0,0,10.42,0,23.273v465.455C0,501.582,10.42,512,23.273,512H256h232.727
	C501.58,512,512,501.582,512,488.727V23.273C512,10.42,501.58,0,488.727,0z M169.224,385.939
	c-5.773,5.772-13.762,9.076-21.924,9.076c-8.176,0-16.182-3.305-21.952-9.076c-5.772-5.787-9.092-13.777-9.092-21.954
	c0-8.161,3.322-16.167,9.092-21.938c5.77-5.772,13.777-9.076,21.952-9.076c8.163,0,16.151,3.305,21.924,9.076
	c5.786,5.772,9.09,13.777,9.09,21.938C178.316,372.162,175.011,380.154,169.224,385.939z M169.224,168.727
	c-5.773,5.772-13.762,9.076-21.924,9.076c-8.176,0-16.182-3.305-21.952-9.076c-5.77-5.772-9.092-13.777-9.092-21.938
	c0-8.176,3.322-16.182,9.092-21.954c5.77-5.772,13.777-9.092,21.952-9.092c8.163,0,16.151,3.32,21.924,9.092
	c5.786,5.787,9.09,13.777,9.09,21.954C178.316,154.95,175.011,162.942,169.224,168.727z M386.451,385.939
	c-5.787,5.772-13.777,9.076-21.954,9.076c-8.161,0-16.151-3.305-21.938-9.076c-5.772-5.772-9.092-13.777-9.092-21.954
	c0-8.161,3.322-16.167,9.092-21.938c5.786-5.772,13.777-9.092,21.938-9.092c8.178,0,16.167,3.32,21.954,9.092
	c5.772,5.772,9.076,13.777,9.076,21.938C395.528,372.162,392.223,380.168,386.451,385.939z M386.451,168.727
	c-5.787,5.772-13.777,9.076-21.954,9.076c-8.161,0-16.151-3.305-21.938-9.076c-5.772-5.772-9.092-13.777-9.092-21.954
	c0-8.161,3.322-16.167,9.092-21.938c5.786-5.772,13.777-9.076,21.938-9.076c8.178,0,16.167,3.305,21.954,9.076
	c5.772,5.772,9.076,13.777,9.076,21.938C395.528,154.95,392.223,162.956,386.451,168.727z"/>
<path style="fill:#C3C3C7;" d="M23.273,0.002C10.42,0.002,0,10.42,0,23.274v465.453C0,501.582,10.42,512,23.273,512H256V0.002
	H23.273z M169.224,385.941c-5.773,5.772-13.762,9.076-21.924,9.076c-8.176,0-16.182-3.305-21.952-9.076
	c-5.772-5.787-9.092-13.777-9.092-21.954c0-8.161,3.322-16.167,9.092-21.938c5.772-5.772,13.777-9.076,21.952-9.076
	c8.163,0,16.151,3.305,21.924,9.076c5.786,5.772,9.09,13.777,9.09,21.938C178.316,372.162,175.011,380.152,169.224,385.941z
	 M169.224,168.729c-5.773,5.772-13.762,9.076-21.924,9.076c-8.176,0-16.182-3.305-21.952-9.076
	c-5.772-5.772-9.092-13.777-9.092-21.938c0-8.176,3.322-16.182,9.092-21.954c5.772-5.772,13.777-9.092,21.952-9.092
	c8.163,0,16.151,3.32,21.924,9.092c5.786,5.787,9.09,13.777,9.09,21.954C178.316,154.95,175.011,162.942,169.224,168.729z"/>
<g>
	<path style="fill:#57575C;" d="M147.299,115.745c-8.176,0-16.182,3.32-21.952,9.092c-5.772,5.772-9.092,13.777-9.092,21.954
		c0,8.161,3.322,16.167,9.092,21.938c5.772,5.772,13.777,9.076,21.952,9.076c8.163,0,16.151-3.305,21.924-9.076
		c5.786-5.787,9.09-13.777,9.09-21.938c0-8.176-3.305-16.167-9.09-21.954C163.452,119.063,155.462,115.745,147.299,115.745z"/>
	<path style="fill:#57575C;" d="M147.299,332.971c-8.176,0-16.182,3.305-21.952,9.076c-5.772,5.772-9.092,13.777-9.092,21.938
		c0,8.177,3.322,16.167,9.092,21.954c5.772,5.772,13.777,9.076,21.952,9.076c8.163,0,16.151-3.305,21.924-9.076
		c5.786-5.787,9.09-13.777,9.09-21.954c0-8.161-3.305-16.167-9.09-21.938C163.452,336.275,155.462,332.971,147.299,332.971z"/>
	<path style="fill:#57575C;" d="M364.497,115.759c-8.161,0-16.151,3.305-21.938,9.076c-5.772,5.772-9.092,13.777-9.092,21.938
		c0,8.176,3.322,16.182,9.092,21.954c5.787,5.772,13.777,9.076,21.938,9.076c8.176,0,16.167-3.305,21.954-9.076
		c5.772-5.772,9.076-13.777,9.076-21.954c0-8.161-3.305-16.167-9.076-21.938C380.664,119.063,372.674,115.759,364.497,115.759z"/>
	<path style="fill:#57575C;" d="M364.497,332.957c-8.161,0-16.151,3.32-21.938,9.092c-5.772,5.772-9.092,13.777-9.092,21.938
		c0,8.176,3.322,16.182,9.092,21.954c5.787,5.772,13.777,9.076,21.938,9.076c8.176,0,16.167-3.305,21.954-9.076
		c5.772-5.772,9.076-13.777,9.076-21.954c0-8.161-3.305-16.167-9.076-21.938C380.664,336.275,372.674,332.957,364.497,332.957z"/>
</g>
<g>
</g>
<g>
</g>
<g>
</g>
<g>
</g>
<g>
</g>
<g>
</g>
<g>
</g>
<g>
</g>
<g>
</g>
<g>
</g>
<g>
</g>
<g>
</g>
<g>
</g>
<g>
</g>
<g>
</g>
</svg>
