<?xml version="1.0" encoding="iso-8859-1"?>
<!-- Generator: Adobe Illustrator 19.0.0, SVG Export Plug-In . SVG Version: 6.00 Build 0)  -->
<svg version="1.1" id="Layer_1" xmlns="http://www.w3.org/2000/svg" xmlns:xlink="http://www.w3.org/1999/xlink" x="0px" y="0px"
	 viewBox="0 0 512 512" style="enable-background:new 0 0 512 512;" xml:space="preserve">
<path style="fill:#DEDEE0;" d="M488.727,0H256H23.273C10.42,0,0,10.42,0,23.273v465.455C0,501.582,10.42,512,23.273,512H256h232.727
	C501.58,512,512,501.582,512,488.727V23.273C512,10.42,501.58,0,488.727,0z M169.239,385.939
	c-5.787,5.773-13.777,9.092-21.938,9.092c-8.176,0-16.184-3.32-21.954-9.092c-5.772-5.772-9.092-13.777-9.092-21.952
	c0-8.161,3.322-16.167,9.092-21.938c5.772-5.772,13.777-9.092,21.954-9.092c8.161,0,16.15,3.32,21.938,9.092
	c5.772,5.772,9.076,13.777,9.076,21.938C178.316,372.162,175.011,380.168,169.239,385.939z M169.239,277.333
	c-5.787,5.773-13.777,9.078-21.938,9.078c-8.176,0-16.168-3.305-21.954-9.078c-5.772-5.772-9.092-13.777-9.092-21.952
	c0-8.161,3.322-16.167,9.092-21.938c5.772-5.772,13.777-9.076,21.954-9.076c8.161,0,16.15,3.305,21.938,9.076
	c5.772,5.772,9.076,13.777,9.076,21.938C178.316,263.556,175.011,271.562,169.239,277.333z M169.239,168.727
	c-5.787,5.773-13.777,9.092-21.938,9.092c-8.176,0-16.168-3.32-21.954-9.092c-5.772-5.772-9.092-13.777-9.092-21.938
	c0-8.176,3.322-16.182,9.092-21.954c5.786-5.772,13.777-9.092,21.954-9.092c8.161,0,16.15,3.32,21.938,9.092
	c5.772,5.772,9.076,13.777,9.076,21.954C178.316,154.95,175.011,162.956,169.239,168.727z M386.451,385.939
	c-5.787,5.773-13.777,9.092-21.938,9.092c-8.177,0-16.184-3.32-21.954-9.092c-5.772-5.786-9.092-13.777-9.092-21.952
	c0-8.161,3.322-16.151,9.092-21.938c5.772-5.772,13.777-9.092,21.954-9.092c8.161,0,16.167,3.32,21.938,9.092
	c5.772,5.787,9.092,13.777,9.092,21.938C395.543,372.162,392.223,380.154,386.451,385.939z M386.451,277.333
	c-5.787,5.773-13.777,9.078-21.938,9.078c-8.177,0-16.184-3.305-21.954-9.078c-5.772-5.786-9.092-13.777-9.092-21.952
	c0-8.161,3.322-16.151,9.092-21.938c5.772-5.772,13.777-9.092,21.954-9.092c8.161,0,16.15,3.32,21.938,9.092
	c5.772,5.787,9.092,13.777,9.092,21.938C395.543,263.556,392.223,271.548,386.451,277.333z M386.451,168.727
	c-5.787,5.773-13.777,9.078-21.938,9.078c-8.177,0-16.184-3.305-21.954-9.078c-5.772-5.786-9.092-13.777-9.092-21.952
	c0-8.161,3.322-16.151,9.092-21.938c5.772-5.772,13.777-9.092,21.954-9.092c8.161,0,16.15,3.32,21.938,9.092
	c5.772,5.787,9.092,13.777,9.092,21.938C395.543,154.95,392.223,162.942,386.451,168.727z"/>
<path style="fill:#C3C3C7;" d="M23.273,0.002C10.42,0.002,0,10.42,0,23.274v465.453C0,501.582,10.42,512,23.273,512H256V0.002
	H23.273z M169.239,385.939c-5.787,5.773-13.777,9.092-21.938,9.092c-8.176,0-16.184-3.32-21.954-9.092
	c-5.772-5.772-9.092-13.777-9.092-21.952c0-8.161,3.322-16.167,9.092-21.938c5.772-5.772,13.777-9.092,21.954-9.092
	c8.161,0,16.15,3.32,21.938,9.092c5.772,5.772,9.076,13.777,9.076,21.938C178.316,372.162,175.011,380.168,169.239,385.939z
	 M169.239,277.333c-5.787,5.773-13.777,9.078-21.938,9.078c-8.176,0-16.168-3.305-21.954-9.078
	c-5.772-5.772-9.092-13.777-9.092-21.952c0-8.161,3.322-16.167,9.092-21.938c5.772-5.772,13.777-9.076,21.954-9.076
	c8.161,0,16.15,3.305,21.938,9.076c5.772,5.772,9.076,13.777,9.076,21.938C178.316,263.556,175.011,271.562,169.239,277.333z
	 M169.239,168.727c-5.787,5.773-13.777,9.092-21.938,9.092c-8.176,0-16.168-3.32-21.954-9.092
	c-5.772-5.772-9.092-13.777-9.092-21.938c0-8.176,3.322-16.182,9.092-21.954c5.786-5.772,13.777-9.092,21.954-9.092
	c8.161,0,16.15,3.32,21.938,9.092c5.772,5.772,9.076,13.777,9.076,21.954C178.316,154.95,175.011,162.956,169.239,168.727z"/>
<g>
	<path style="fill:#57575C;" d="M147.301,115.745c-8.176,0-16.168,3.32-21.954,9.092c-5.772,5.772-9.092,13.777-9.092,21.954
		c0,8.161,3.322,16.167,9.092,21.938c5.786,5.773,13.777,9.092,21.954,9.092c8.161,0,16.15-3.32,21.938-9.092
		c5.772-5.772,9.076-13.777,9.076-21.938c0-8.176-3.305-16.182-9.076-21.954C163.452,119.063,155.462,115.745,147.301,115.745z"/>
	<path style="fill:#57575C;" d="M147.301,224.365c-8.176,0-16.184,3.305-21.954,9.076c-5.772,5.772-9.092,13.777-9.092,21.938
		c0,8.176,3.322,16.182,9.092,21.952c5.786,5.773,13.777,9.078,21.954,9.078c8.161,0,16.15-3.305,21.938-9.078
		c5.772-5.772,9.076-13.777,9.076-21.952c0-8.161-3.305-16.167-9.076-21.938C163.452,227.669,155.462,224.365,147.301,224.365z"/>
	<path style="fill:#57575C;" d="M147.301,332.957c-8.176,0-16.184,3.32-21.954,9.092c-5.772,5.772-9.092,13.777-9.092,21.938
		c0,8.176,3.322,16.182,9.092,21.952c5.772,5.773,13.777,9.092,21.954,9.092c8.161,0,16.15-3.32,21.938-9.092
		c5.772-5.772,9.076-13.777,9.076-21.952c0-8.161-3.305-16.167-9.076-21.938C163.452,336.275,155.462,332.957,147.301,332.957z"/>
	<path style="fill:#57575C;" d="M364.513,115.745c-8.178,0-16.184,3.32-21.954,9.092c-5.772,5.787-9.092,13.777-9.092,21.938
		c0,8.176,3.322,16.167,9.092,21.952c5.772,5.773,13.777,9.078,21.954,9.078c8.161,0,16.15-3.305,21.938-9.078
		c5.772-5.786,9.092-13.777,9.092-21.952c0-8.161-3.322-16.151-9.092-21.938C380.664,119.063,372.674,115.745,364.513,115.745z"/>
	<path style="fill:#57575C;" d="M364.513,224.351c-8.178,0-16.184,3.32-21.954,9.092c-5.772,5.787-9.092,13.777-9.092,21.938
		c0,8.176,3.322,16.167,9.092,21.952c5.772,5.773,13.777,9.078,21.954,9.078c8.161,0,16.15-3.305,21.938-9.078
		c5.772-5.787,9.092-13.777,9.092-21.952c0-8.161-3.322-16.151-9.092-21.938C380.664,227.669,372.674,224.351,364.513,224.351z"/>
	<path style="fill:#57575C;" d="M364.513,332.957c-8.178,0-16.184,3.32-21.954,9.092c-5.772,5.787-9.092,13.777-9.092,21.938
		c0,8.176,3.322,16.167,9.092,21.952c5.772,5.773,13.777,9.092,21.954,9.092c8.161,0,16.15-3.32,21.938-9.092
		c5.772-5.787,9.092-13.777,9.092-21.952c0-8.161-3.322-16.151-9.092-21.938C380.68,336.275,372.674,332.957,364.513,332.957z"/>
</g>
<g>
</g>
<g>
</g>
<g>
</g>
<g>
</g>
<g>
</g>
<g>
</g>
<g>
</g>
<g>
</g>
<g>
</g>
<g>
</g>
<g>
</g>
<g>
</g>
<g>
</g>
<g>
</g>
<g>
</g>
</svg>
